<?xml version="1.0" encoding="UTF-8" standalone="no"?>
<!DOCTYPE svg PUBLIC "-//W3C//DTD SVG 1.1//EN" "http://www.w3.org/Graphics/SVG/1.1/DTD/svg11.dtd">
<svg xmlns="http://www.w3.org/2000/svg" version="1.1" viewBox="0.00 0.00 1024.00 1024.00">
<path fill="#114601" d="
  M 734.35 307.48
  Q 743.40 317.44 752.72 329.07
  Q 756.13 333.32 758.24 336.89
  C 760.58 340.84 763.23 343.53 765.57 347.34
  Q 772.24 358.19 779.91 371.97
  Q 784.66 380.51 787.53 387.75
  C 789.45 392.59 794.07 402.40 796.48 409.35
  Q 805.31 434.80 809.76 458.75
  Q 809.91 459.57 812.48 476.63
  Q 813.80 485.38 814.09 492.28
  Q 814.68 506.65 814.69 508.00
  Q 814.79 523.28 813.49 539.20
  C 812.92 546.21 810.94 556.93 810.26 562.54
  C 809.53 568.54 808.45 571.99 806.90 579.14
  Q 805.61 585.05 804.47 588.91
  Q 802.51 595.50 801.87 598.64
  Q 801.72 599.38 798.18 610.02
  C 796.22 615.92 793.38 621.28 791.20 627.36
  Q 790.09 630.48 788.29 634.27
  C 785.34 640.52 783.05 646.29 779.65 651.88
  C 776.74 656.68 774.31 662.20 771.57 666.58
  C 769.61 669.71 767.74 673.37 765.44 676.51
  Q 761.59 681.78 755.53 690.55
  Q 751.28 696.69 745.08 704.14
  Q 736.29 714.71 726.09 725.34
  Q 723.64 727.89 710.71 739.65
  Q 702.66 746.97 694.48 752.96
  Q 676.29 766.25 666.59 772.08
  Q 646.14 784.38 622.69 793.66
  Q 601.19 802.17 573.40 808.34
  Q 567.46 809.66 559.88 810.63
  C 553.48 811.44 547.74 812.48 541.69 812.95
  Q 507.08 815.67 473.29 811.88
  Q 468.12 811.30 454.71 808.94
  Q 444.24 807.10 436.31 804.78
  Q 411.55 797.53 402.23 793.74
  C 381.65 785.36 361.49 775.42 344.25 763.25
  C 337.55 758.52 328.03 751.81 320.23 745.18
  Q 304.70 731.98 292.94 719.56
  Q 244.50 668.40 222.63 599.70
  C 219.93 591.23 218.00 582.05 215.80 572.86
  Q 214.62 567.90 213.65 562.01
  Q 211.08 546.31 210.59 540.99
  Q 208.53 518.48 210.15 487.65
  C 210.46 481.67 211.50 473.84 212.44 469.19
  C 213.51 463.91 213.83 459.43 214.82 455.05
  C 216.60 447.24 217.93 439.92 220.37 432.00
  Q 224.02 420.18 226.15 414.09
  Q 244.09 362.68 277.97 321.41
  Q 286.38 311.16 292.93 304.43
  Q 304.23 292.81 309.04 288.53
  Q 317.22 281.23 324.17 275.68
  Q 366.96 241.49 418.56 224.40
  Q 426.07 221.92 433.18 220.34
  Q 433.40 220.29 447.97 216.85
  Q 452.85 215.70 455.48 215.09
  C 460.43 213.95 464.29 213.89 469.37 213.05
  Q 470.22 212.91 475.67 212.20
  Q 515.42 206.98 558.78 213.60
  Q 567.28 214.89 567.87 215.10
  C 570.14 215.89 573.04 215.89 575.36 216.43
  Q 587.76 219.37 599.58 222.70
  Q 611.84 226.15 629.10 233.17
  Q 638.41 236.96 658.50 247.45
  Q 662.21 249.39 677.30 259.06
  Q 686.66 265.05 695.19 271.79
  Q 710.91 284.22 712.99 286.10
  Q 723.98 296.07 734.35 307.48
  Z
  M 366.25 711.05
  A 1.89 1.88 38.6 0 0 367.61 710.90
  C 379.57 704.64 379.09 694.43 383.25 682.67
  Q 385.37 676.70 388.82 664.11
  Q 392.04 652.38 406.49 610.89
  C 408.13 606.19 409.84 602.90 411.00 598.71
  Q 411.86 595.62 414.43 589.60
  C 417.84 581.61 421.04 571.58 424.54 563.73
  C 432.67 545.48 436.28 538.63 442.68 523.19
  Q 446.07 515.05 450.87 506.29
  C 453.18 502.09 455.09 496.92 457.12 493.12
  Q 469.88 469.27 481.24 450.33
  C 488.07 438.94 491.82 429.65 499.18 418.93
  Q 502.70 413.80 510.60 401.10
  Q 518.62 388.22 532.60 368.91
  C 534.76 365.93 536.60 362.84 538.71 359.94
  Q 545.78 350.23 553.00 340.79
  Q 560.93 330.42 567.57 321.96
  C 574.56 313.06 581.29 306.37 588.34 297.11
  C 593.98 289.70 590.68 281.36 582.62 277.88
  Q 579.56 276.55 575.66 275.78
  C 554.21 271.52 531.45 274.86 511.13 282.41
  C 500.45 286.38 488.24 291.45 477.57 297.60
  Q 460.35 307.52 444.54 319.05
  Q 433.38 327.19 414.67 345.42
  Q 411.91 348.11 409.46 350.19
  C 403.89 354.93 399.23 361.04 394.69 366.12
  C 386.29 375.52 380.11 385.60 373.19 394.64
  C 367.04 402.67 362.26 411.44 355.88 420.25
  C 352.35 425.13 350.05 430.60 347.55 434.97
  C 343.39 442.25 339.91 451.29 336.08 459.56
  C 331.63 469.18 327.34 481.67 324.14 490.24
  C 322.06 495.82 320.68 501.33 319.07 506.40
  Q 316.86 513.34 315.73 518.65
  Q 311.11 540.38 310.11 556.34
  Q 308.67 579.38 309.05 588.56
  Q 310.27 617.78 318.82 645.29
  Q 322.73 657.88 325.58 663.44
  C 328.43 668.99 332.99 678.14 336.74 683.82
  Q 342.95 693.24 352.41 702.92
  C 356.63 707.24 360.70 709.53 366.25 711.05
  Z
  M 396.52 729.05
  Q 405.31 739.59 419.32 743.05
  Q 441.19 748.43 463.00 746.20
  C 479.05 744.55 494.35 742.26 507.72 737.44
  Q 516.14 734.40 531.58 728.00
  Q 542.88 723.31 552.15 717.80
  Q 567.52 708.66 571.69 705.67
  Q 581.07 698.93 582.38 698.23
  C 586.01 696.27 588.39 693.94 591.95 691.21
  C 597.59 686.88 604.27 680.30 608.03 677.08
  Q 612.36 673.37 616.96 668.38
  Q 625.66 658.94 632.94 650.89
  Q 634.70 648.95 636.52 646.56
  C 639.44 642.73 642.44 639.57 645.17 635.54
  C 649.28 629.44 653.76 624.45 657.38 618.65
  Q 667.88 601.83 670.31 597.33
  Q 687.59 565.35 698.92 531.23
  Q 699.88 528.35 701.17 521.15
  Q 702.16 515.59 703.35 511.06
  Q 710.25 484.88 710.14 456.98
  Q 710.10 447.11 709.72 432.92
  Q 709.54 426.50 706.33 406.60
  Q 705.15 399.30 701.69 388.65
  Q 701.14 386.96 700.69 384.87
  C 699.76 380.59 698.16 376.88 696.19 372.09
  Q 693.87 366.48 692.16 363.34
  C 690.39 360.11 687.22 352.28 683.66 347.66
  Q 678.75 341.27 674.12 334.90
  C 669.38 328.37 663.24 323.13 656.78 317.32
  C 654.51 315.27 652.41 314.37 650.45 312.81
  C 647.59 310.52 643.76 308.90 641.08 306.43
  A 6.50 6.39 -13.6 0 0 638.86 305.10
  Q 637.43 304.61 633.24 302.67
  C 621.16 297.09 609.65 299.56 601.37 310.34
  Q 595.47 318.02 586.95 327.83
  Q 585.42 329.59 584.54 330.91
  Q 583.06 333.11 582.27 334.12
  Q 576.34 341.68 570.20 348.72
  C 567.45 351.87 564.04 358.30 560.36 362.59
  C 557.21 366.25 554.19 369.78 551.14 374.37
  Q 544.89 383.79 542.55 386.98
  C 536.98 394.55 531.61 405.27 525.77 412.71
  Q 520.46 419.47 518.29 424.23
  Q 518.23 424.35 509.53 437.51
  Q 505.18 444.09 493.37 464.62
  Q 486.53 476.51 478.64 492.54
  Q 463.81 522.65 461.36 528.05
  C 456.51 538.72 450.94 549.05 448.76 556.40
  Q 447.41 560.97 444.21 567.45
  Q 440.40 575.16 437.93 581.94
  Q 428.83 606.98 423.19 621.59
  Q 417.85 635.42 413.67 649.18
  Q 397.72 701.62 397.61 702.05
  C 395.19 711.42 393.49 718.98 395.97 727.99
  A 2.82 2.81 -72.5 0 0 396.52 729.05
  Z"
/>
<g stroke-width="2.00" fill="none" stroke-linecap="butt">
<path stroke="#0c3902" d="
  M 366.25 711.05
  A 1.89 1.88 38.6 0 0 367.61 710.90
  C 379.57 704.64 379.09 694.43 383.25 682.67
  Q 385.37 676.70 388.82 664.11
  Q 392.04 652.38 406.49 610.89
  C 408.13 606.19 409.84 602.90 411.00 598.71
  Q 411.86 595.62 414.43 589.60
  C 417.84 581.61 421.04 571.58 424.54 563.73
  C 432.67 545.48 436.28 538.63 442.68 523.19
  Q 446.07 515.05 450.87 506.29
  C 453.18 502.09 455.09 496.92 457.12 493.12
  Q 469.88 469.27 481.24 450.33
  C 488.07 438.94 491.82 429.65 499.18 418.93
  Q 502.70 413.80 510.60 401.10
  Q 518.62 388.22 532.60 368.91
  C 534.76 365.93 536.60 362.84 538.71 359.94
  Q 545.78 350.23 553.00 340.79
  Q 560.93 330.42 567.57 321.96
  C 574.56 313.06 581.29 306.37 588.34 297.11
  C 593.98 289.70 590.68 281.36 582.62 277.88
  Q 579.56 276.55 575.66 275.78
  C 554.21 271.52 531.45 274.86 511.13 282.41
  C 500.45 286.38 488.24 291.45 477.57 297.60
  Q 460.35 307.52 444.54 319.05
  Q 433.38 327.19 414.67 345.42
  Q 411.91 348.11 409.46 350.19
  C 403.89 354.93 399.23 361.04 394.69 366.12
  C 386.29 375.52 380.11 385.60 373.19 394.64
  C 367.04 402.67 362.26 411.44 355.88 420.25
  C 352.35 425.13 350.05 430.60 347.55 434.97
  C 343.39 442.25 339.91 451.29 336.08 459.56
  C 331.63 469.18 327.34 481.67 324.14 490.24
  C 322.06 495.82 320.68 501.33 319.07 506.40
  Q 316.86 513.34 315.73 518.65
  Q 311.11 540.38 310.11 556.34
  Q 308.67 579.38 309.05 588.56
  Q 310.27 617.78 318.82 645.29
  Q 322.73 657.88 325.58 663.44
  C 328.43 668.99 332.99 678.14 336.74 683.82
  Q 342.95 693.24 352.41 702.92
  C 356.63 707.24 360.70 709.53 366.25 711.05"
/>
<path stroke="#0c3902" d="
  M 396.52 729.05
  Q 405.31 739.59 419.32 743.05
  Q 441.19 748.43 463.00 746.20
  C 479.05 744.55 494.35 742.26 507.72 737.44
  Q 516.14 734.40 531.58 728.00
  Q 542.88 723.31 552.15 717.80
  Q 567.52 708.66 571.69 705.67
  Q 581.07 698.93 582.38 698.23
  C 586.01 696.27 588.39 693.94 591.95 691.21
  C 597.59 686.88 604.27 680.30 608.03 677.08
  Q 612.36 673.37 616.96 668.38
  Q 625.66 658.94 632.94 650.89
  Q 634.70 648.95 636.52 646.56
  C 639.44 642.73 642.44 639.57 645.17 635.54
  C 649.28 629.44 653.76 624.45 657.38 618.65
  Q 667.88 601.83 670.31 597.33
  Q 687.59 565.35 698.92 531.23
  Q 699.88 528.35 701.17 521.15
  Q 702.16 515.59 703.35 511.06
  Q 710.25 484.88 710.14 456.98
  Q 710.10 447.11 709.72 432.92
  Q 709.54 426.50 706.33 406.60
  Q 705.15 399.30 701.69 388.65
  Q 701.14 386.96 700.69 384.87
  C 699.76 380.59 698.16 376.88 696.19 372.09
  Q 693.87 366.48 692.16 363.34
  C 690.39 360.11 687.22 352.28 683.66 347.66
  Q 678.75 341.27 674.12 334.90
  C 669.38 328.37 663.24 323.13 656.78 317.32
  C 654.51 315.27 652.41 314.37 650.45 312.81
  C 647.59 310.52 643.76 308.90 641.08 306.43
  A 6.50 6.39 -13.6 0 0 638.86 305.10
  Q 637.43 304.61 633.24 302.67
  C 621.16 297.09 609.65 299.56 601.37 310.34
  Q 595.47 318.02 586.95 327.83
  Q 585.42 329.59 584.54 330.91
  Q 583.06 333.11 582.27 334.12
  Q 576.34 341.68 570.20 348.72
  C 567.45 351.87 564.04 358.30 560.36 362.59
  C 557.21 366.25 554.19 369.78 551.14 374.37
  Q 544.89 383.79 542.55 386.98
  C 536.98 394.55 531.61 405.27 525.77 412.71
  Q 520.46 419.47 518.29 424.23
  Q 518.23 424.35 509.53 437.51
  Q 505.18 444.09 493.37 464.62
  Q 486.53 476.51 478.64 492.54
  Q 463.81 522.65 461.36 528.05
  C 456.51 538.72 450.94 549.05 448.76 556.40
  Q 447.41 560.97 444.21 567.45
  Q 440.40 575.16 437.93 581.94
  Q 428.83 606.98 423.19 621.59
  Q 417.85 635.42 413.67 649.18
  Q 397.72 701.62 397.61 702.05
  C 395.19 711.42 393.49 718.98 395.97 727.99
  A 2.82 2.81 -72.5 0 0 396.52 729.05"
/>
</g>
<path fill="#062c03" fill-opacity="0.996" d="
  M 366.25 711.05
  C 360.70 709.53 356.63 707.24 352.41 702.92
  Q 342.95 693.24 336.74 683.82
  C 332.99 678.14 328.43 668.99 325.58 663.44
  Q 322.73 657.88 318.82 645.29
  Q 310.27 617.78 309.05 588.56
  Q 308.67 579.38 310.11 556.34
  Q 311.11 540.38 315.73 518.65
  Q 316.86 513.34 319.07 506.40
  C 320.68 501.33 322.06 495.82 324.14 490.24
  C 327.34 481.67 331.63 469.18 336.08 459.56
  C 339.91 451.29 343.39 442.25 347.55 434.97
  C 350.05 430.60 352.35 425.13 355.88 420.25
  C 362.26 411.44 367.04 402.67 373.19 394.64
  C 380.11 385.60 386.29 375.52 394.69 366.12
  C 399.23 361.04 403.89 354.93 409.46 350.19
  Q 411.91 348.11 414.67 345.42
  Q 433.38 327.19 444.54 319.05
  Q 460.35 307.52 477.57 297.60
  C 488.24 291.45 500.45 286.38 511.13 282.41
  C 531.45 274.86 554.21 271.52 575.66 275.78
  Q 579.56 276.55 582.62 277.88
  C 590.68 281.36 593.98 289.70 588.34 297.11
  C 581.29 306.37 574.56 313.06 567.57 321.96
  Q 560.93 330.42 553.00 340.79
  Q 545.78 350.23 538.71 359.94
  C 536.60 362.84 534.76 365.93 532.60 368.91
  Q 518.62 388.22 510.60 401.10
  Q 502.70 413.80 499.18 418.93
  C 491.82 429.65 488.07 438.94 481.24 450.33
  Q 469.88 469.27 457.12 493.12
  C 455.09 496.92 453.18 502.09 450.87 506.29
  Q 446.07 515.05 442.68 523.19
  C 436.28 538.63 432.67 545.48 424.54 563.73
  C 421.04 571.58 417.84 581.61 414.43 589.60
  Q 411.86 595.62 411.00 598.71
  C 409.84 602.90 408.13 606.19 406.49 610.89
  Q 392.04 652.38 388.82 664.11
  Q 385.37 676.70 383.25 682.67
  C 379.09 694.43 379.57 704.64 367.61 710.90
  A 1.89 1.88 38.6 0 1 366.25 711.05
  Z"
/>
<path fill="#84c044" d="
  M 375.34 699.55
  C 373.57 705.73 368.31 709.65 362.03 706.72
  C 358.03 704.86 353.47 701.05 350.64 697.72
  Q 335.92 680.40 328.87 664.82
  C 312.62 628.91 308.18 586.09 313.54 547.24
  Q 318.32 512.59 330.44 480.19
  C 352.56 421.01 390.66 366.65 439.55 326.38
  Q 453.80 314.64 468.00 306.02
  C 489.74 292.83 513.02 282.42 537.93 277.95
  C 548.32 276.09 560.14 275.13 570.50 277.00
  C 575.62 277.93 583.63 279.45 587.05 284.03
  Q 591.15 289.52 586.02 295.51
  Q 579.11 303.57 569.03 315.69
  Q 559.32 327.36 552.58 336.34
  Q 527.72 369.46 508.06 399.79
  Q 470.36 457.96 439.49 523.44
  C 418.54 567.89 401.13 614.11 386.89 660.39
  Q 381.82 676.87 375.34 699.55
  Z"
/>
<path fill="#78a648" d="
  M 367.54 677.59
  A 1.74 1.73 -70.0 0 1 365.94 678.34
  C 361.67 677.95 358.55 674.02 356.38 670.40
  C 336.71 637.60 331.77 596.42 335.03 559.25
  C 338.06 524.82 348.22 493.03 363.33 460.13
  C 373.85 437.23 387.22 416.57 402.24 396.48
  Q 405.68 391.88 416.01 380.11
  C 432.11 361.79 449.69 345.98 470.05 331.76
  Q 482.82 322.83 493.37 317.49
  C 512.12 308.00 531.12 300.39 551.53 298.24
  Q 555.72 297.80 558.97 298.47
  A 2.66 2.65 -81.8 0 1 561.07 301.29
  Q 560.72 305.51 557.91 309.17
  Q 531.98 342.85 516.75 365.50
  Q 511.38 373.49 503.30 385.26
  C 497.37 393.90 492.59 402.61 486.85 411.77
  Q 471.16 436.82 465.50 447.25
  Q 456.01 464.74 453.34 469.37
  Q 448.92 477.01 444.63 485.92
  C 440.39 494.72 434.87 504.97 430.15 515.70
  Q 425.97 525.20 419.61 538.11
  C 417.41 542.59 415.38 548.35 413.74 552.23
  Q 389.19 610.21 370.07 672.29
  Q 369.16 675.23 367.54 677.59
  Z"
/>
<path fill="#062c03" fill-opacity="0.996" d="
  M 395.97 727.99
  C 393.49 718.98 395.19 711.42 397.61 702.05
  Q 397.72 701.62 413.67 649.18
  Q 417.85 635.42 423.19 621.59
  Q 428.83 606.98 437.93 581.94
  Q 440.40 575.16 444.21 567.45
  Q 447.41 560.97 448.76 556.40
  C 450.94 549.05 456.51 538.72 461.36 528.05
  Q 463.81 522.65 478.64 492.54
  Q 486.53 476.51 493.37 464.62
  Q 505.18 444.09 509.53 437.51
  Q 518.23 424.35 518.29 424.23
  Q 520.46 419.47 525.77 412.71
  C 531.61 405.27 536.98 394.55 542.55 386.98
  Q 544.89 383.79 551.14 374.37
  C 554.19 369.78 557.21 366.25 560.36 362.59
  C 564.04 358.30 567.45 351.87 570.20 348.72
  Q 576.34 341.68 582.27 334.12
  Q 583.06 333.11 584.54 330.91
  Q 585.42 329.59 586.95 327.83
  Q 595.47 318.02 601.37 310.34
  C 609.65 299.56 621.16 297.09 633.24 302.67
  Q 637.43 304.61 638.86 305.10
  A 6.50 6.39 -13.6 0 1 641.08 306.43
  C 643.76 308.90 647.59 310.52 650.45 312.81
  C 652.41 314.37 654.51 315.27 656.78 317.32
  C 663.24 323.13 669.38 328.37 674.12 334.90
  Q 678.75 341.27 683.66 347.66
  C 687.22 352.28 690.39 360.11 692.16 363.34
  Q 693.87 366.48 696.19 372.09
  C 698.16 376.88 699.76 380.59 700.69 384.87
  Q 701.14 386.96 701.69 388.65
  Q 705.15 399.30 706.33 406.60
  Q 709.54 426.50 709.72 432.92
  Q 710.10 447.11 710.14 456.98
  Q 710.25 484.88 703.35 511.06
  Q 702.16 515.59 701.17 521.15
  Q 699.88 528.35 698.92 531.23
  Q 687.59 565.35 670.31 597.33
  Q 667.88 601.83 657.38 618.65
  C 653.76 624.45 649.28 629.44 645.17 635.54
  C 642.44 639.57 639.44 642.73 636.52 646.56
  Q 634.70 648.95 632.94 650.89
  Q 625.66 658.94 616.96 668.38
  Q 612.36 673.37 608.03 677.08
  C 604.27 680.30 597.59 686.88 591.95 691.21
  C 588.39 693.94 586.01 696.27 582.38 698.23
  Q 581.07 698.93 571.69 705.67
  Q 567.52 708.66 552.15 717.80
  Q 542.88 723.31 531.58 728.00
  Q 516.14 734.40 507.72 737.44
  C 494.35 742.26 479.05 744.55 463.00 746.20
  Q 441.19 748.43 419.32 743.05
  Q 405.31 739.59 396.52 729.05
  A 2.82 2.81 -72.5 0 1 395.97 727.99
  Z"
/>
<path fill="#84c044" d="
  M 610.79 670.79
  C 573.51 707.00 527.46 733.65 475.98 742.34
  C 458.82 745.24 442.65 745.48 425.99 742.05
  C 415.32 739.86 399.31 734.35 396.50 722.27
  Q 395.89 719.68 397.54 713.34
  C 405.30 683.53 414.49 654.03 424.38 625.62
  Q 438.40 585.34 456.61 544.86
  Q 502.93 441.88 572.92 349.92
  Q 581.23 339.01 605.78 309.82
  C 609.35 305.57 613.71 302.17 619.52 302.14
  C 626.36 302.10 634.87 305.57 640.58 308.97
  Q 666.56 324.43 682.34 350.20
  C 702.68 383.41 709.51 424.52 707.55 463.53
  Q 706.00 494.47 698.02 523.54
  Q 686.59 565.16 664.65 601.92
  Q 657.62 613.69 646.46 629.76
  C 642.27 635.81 638.24 640.38 632.83 647.08
  Q 624.17 657.80 610.79 670.79
  Z"
/>
<path fill="#357737" d="
  M 614.81 375.40
  A 0.55 0.55 0.0 0 0 615.56 376.03
  Q 631.43 369.32 651.85 360.97
  Q 656.38 359.11 657.88 359.17
  C 664.76 359.47 665.81 368.73 659.52 371.29
  Q 642.68 378.17 614.46 389.97
  C 606.54 393.29 599.28 389.30 601.16 379.93
  Q 605.48 358.54 610.81 333.53
  C 611.52 330.20 611.91 326.85 614.24 325.30
  C 618.08 322.73 624.42 324.24 624.87 329.21
  Q 624.98 330.32 623.66 336.26
  Q 617.60 363.69 614.81 375.40
  Z"
/>
<path fill="#357737" d="
  M 598.04 412.99
  Q 630.82 407.98 671.81 402.54
  Q 676.03 401.98 677.61 402.72
  C 681.29 404.45 682.58 409.26 680.04 412.40
  Q 678.49 414.31 675.28 414.77
  Q 620.52 422.61 596.02 425.75
  Q 590.83 426.41 587.94 422.14
  Q 584.51 417.07 583.35 415.00
  Q 576.88 403.35 566.15 384.23
  Q 563.56 379.60 568.45 376.35
  Q 572.93 373.37 576.63 377.39
  C 579.21 380.19 581.55 385.53 583.59 389.08
  Q 593.92 407.09 596.91 412.44
  A 1.12 1.11 70.8 0 0 598.04 412.99
  Z"
/>
<path fill="#357737" d="
  M 543.02 415.55
  C 543.04 408.42 551.77 407.42 555.17 412.85
  Q 561.65 423.20 576.30 447.17
  C 577.41 449.00 578.88 449.82 581.19 449.90
  Q 593.51 450.31 604.75 451.14
  Q 637.05 453.49 670.98 455.15
  C 674.37 455.31 677.80 455.70 680.99 456.29
  Q 684.23 456.89 685.27 459.99
  C 687.24 465.87 682.80 468.84 677.52 468.47
  Q 652.82 466.73 610.95 464.50
  C 600.12 463.93 586.69 462.74 574.83 462.03
  A 4.06 3.95 56.4 0 1 573.72 461.79
  Q 569.90 460.33 567.98 457.26
  Q 548.42 425.92 547.61 424.64
  Q 543.57 418.24 543.17 416.75
  A 4.33 4.30 38.1 0 1 543.02 415.55
  Z"
/>
<path fill="#357737" d="
  M 671.36 508.25
  C 674.27 508.62 677.98 510.86 677.74 514.27
  C 676.98 525.18 666.25 519.99 659.40 518.57
  Q 621.77 510.78 579.50 501.70
  C 572.72 500.25 564.13 497.97 556.76 496.75
  Q 550.67 495.75 547.54 490.77
  Q 533.40 468.31 523.85 452.47
  C 518.95 444.36 529.75 439.00 534.35 446.23
  Q 552.99 475.58 556.91 481.57
  C 558.13 483.43 559.45 484.36 561.78 484.78
  Q 564.53 485.29 575.28 487.71
  C 606.43 494.72 636.37 500.58 669.39 507.91
  Q 670.40 508.13 671.36 508.25
  Z"
/>
<path fill="#357737" d="
  M 642.81 590.36
  Q 641.26 590.51 637.70 588.81
  C 632.48 586.32 625.04 581.12 619.87 578.35
  C 614.99 575.74 610.59 572.62 605.01 569.68
  C 594.47 564.13 580.42 555.50 572.25 550.87
  Q 553.34 540.16 531.22 526.79
  C 528.55 525.17 526.77 523.52 525.00 520.72
  Q 508.01 493.76 503.18 484.85
  Q 499.43 477.93 506.47 475.46
  C 510.13 474.18 512.76 476.69 514.76 480.10
  Q 518.90 487.16 536.16 514.92
  A 2.87 2.79 0.5 0 0 537.08 515.83
  C 548.24 522.75 558.15 528.22 568.74 534.32
  Q 583.71 542.93 643.22 577.52
  C 646.58 579.47 650.26 582.57 648.04 586.96
  Q 646.50 590.03 642.81 590.36
  Z"
/>
<path fill="#357737" d="
  M 613.3780 632.4298
  A 6.18 6.18 0.0 0 1 604.6663 633.1308
  L 483.8863 530.3389
  A 6.18 6.18 0.0 0 1 483.1854 521.6272
  L 483.3020 521.4902
  A 6.18 6.18 0.0 0 1 492.0137 520.7892
  L 612.7937 623.5811
  A 6.18 6.18 0.0 0 1 613.4946 632.2928
  L 613.3780 632.4298
  Z"
/>
<path fill="#357737" d="
  M 578.7557 659.0569
  A 6.00 6.00 0.0 0 1 578.6076 667.5409
  L 578.2336 667.9022
  A 6.00 6.00 0.0 0 1 569.7496 667.7541
  L 467.7043 562.0831
  A 6.00 6.00 0.0 0 1 467.8524 553.5991
  L 468.2264 553.2378
  A 6.00 6.00 0.0 0 1 476.7104 553.3859
  L 578.7557 659.0569
  Z"
/>
<path fill="#357737" d="
  M 535.6591 689.7075
  A 5.88 5.88 0.0 0 1 534.1580 697.8865
  L 533.4830 698.3521
  A 5.88 5.88 0.0 0 1 525.3040 696.8510
  L 453.3809 592.5925
  A 5.88 5.88 0.0 0 1 454.8820 584.4135
  L 455.5570 583.9479
  A 5.88 5.88 0.0 0 1 463.7360 585.4490
  L 535.6591 689.7075
  Z"
/>
<path fill="#357737" d="
  M 488.6203 710.8706
  A 5.58 5.58 0.0 0 1 485.9083 718.2813
  L 484.8562 718.7697
  A 5.58 5.58 0.0 0 1 477.4455 716.0577
  L 436.8997 628.7094
  A 5.58 5.58 0.0 0 1 439.6117 621.2987
  L 440.6638 620.8103
  A 5.58 5.58 0.0 0 1 448.0745 623.5223
  L 488.6203 710.8706
  Z"
/>
<path fill="#357737" d="
  M 443.6435 716.3544
  A 6.02 6.02 0.0 0 1 439.3739 723.7199
  L 438.7554 723.8845
  A 6.02 6.02 0.0 0 1 431.3899 719.6148
  L 422.4365 685.9656
  A 6.02 6.02 0.0 0 1 426.7061 678.6001
  L 427.3246 678.4355
  A 6.02 6.02 0.0 0 1 434.6901 682.7052
  L 443.6435 716.3544
  Z"
/>
</svg>
